Coordinates
version=1
nRows=29
nColumns=24
inDegrees=yes

Units are S.I. units (second, meters, Newtons, ...)
Angles are in degrees.

endheader
time	pelvis_tilt	pelvis_list	pelvis_rotation	pelvis_tx	pelvis_ty	pelvis_tz	hip_flexion_r	hip_adduction_r	hip_rotation_r	knee_angle_r	ankle_angle_r	subtalar_angle_r	mtp_angle_r	hip_flexion_l	hip_adduction_l	hip_rotation_l	knee_angle_l	ankle_angle_l	subtalar_angle_l	mtp_angle_l	lumbar_extension	lumbar_bending	lumbar_rotation
      4.17000000	    -18.65748401	     -6.06925820	      0.50638795	     -1.69859630	     -0.01460434	     -0.28224162	     26.17302339	      9.49303274	     -9.20218791	    -19.66059009	      6.06402595	     -9.66858638	      3.79143904	     32.17806919	    -10.78202475	     -5.39986009	    -60.17732243	     -5.73776066	     -6.94339648	     23.28271868	     20.13300982	      5.27461950	    -14.88669856
      4.17500000	    -18.69648681	     -5.73258367	      0.33519824	     -1.69249779	     -0.01339029	     -0.28182566	     25.42540374	      9.28998462	     -9.03593574	    -19.05311311	      6.09036323	     -9.36337717	      3.72183710	     32.83569729	    -10.49993273	     -5.78162148	    -59.62822983	     -5.28233871	     -6.81493202	     23.43850222	     20.13497150	      5.02068843	    -14.45628449
      4.18000000	    -18.69997066	     -5.40487802	      0.12556705	     -1.68639549	     -0.01222398	     -0.28139089	     24.64377635	      9.10438133	     -8.83230801	    -18.45149579	      6.12910539	     -9.02057685	      3.65737950	     33.42559002	    -10.26616731	     -6.24044905	    -59.01745916	     -4.87572751	     -6.80392872	     23.53684108	     20.09857506	      4.79430052	    -13.99886715
      4.18500000	    -18.69539764	     -5.09332048	     -0.08692243	     -1.68030794	     -0.01113878	     -0.28096941	     23.86753468	      8.92427527	     -8.65643515	    -17.86672383	      6.16578636	     -8.66392163	      3.59669482	     33.99303508	    -10.05953318	     -6.71042255	    -58.35412409	     -4.49427459	     -6.82639729	     23.59085541	     20.05219126	      4.58666832	    -13.54260519
      4.19000000	    -18.69127318	     -4.79560999	     -0.30451019	     -1.67424172	     -0.01014545	     -0.28055876	     23.10816434	      8.74825420	     -8.50253660	    -17.30321382	      6.20745551	     -8.28739773	      3.54741356	     34.54626987	     -9.87800318	     -7.19031922	    -57.63968787	     -4.12848544	     -6.85205314	     23.60588919	     20.00539908	      4.39512782	    -13.08735015
      4.19500000	    -18.68635910	     -4.51114607	     -0.52669100	     -1.66820089	     -0.00923892	     -0.28017167	     22.36554851	      8.57453280	     -8.36719792	    -16.76349911	      6.25331082	     -7.89271592	      3.51103131	     35.08276875	     -9.71984814	     -7.67985458	    -56.87257006	     -3.77525251	     -6.86612820	     23.58984997	     19.95683748	      4.22049205	    -12.63139294
      4.20000000	    -18.69719127	     -4.25571029	     -0.73654309	     -1.66218017	     -0.00846262	     -0.27981969	     21.64885955	      8.41668278	     -8.22594967	    -16.23336412	      6.32738196	     -7.48749061	      3.49770534	     35.63364991	     -9.58982492	     -8.14798847	    -56.06936675	     -3.42988725	     -6.84296884	     23.55971882	     19.92630048	      4.06999787	    -12.21332603
      4.20500000	    -18.69143612	     -3.99155187	     -0.96976073	     -1.65619200	     -0.00772907	     -0.27946469	     20.94235903	      8.24516292	     -8.11760235	    -15.74529103	      6.37937967	     -7.06248607	      3.49191136	     36.13346708	     -9.47179183	     -8.65354677	    -55.19556669	     -3.09125119	     -6.78958784	     23.51483127	     19.87183357	      3.92426987	    -11.74685971
      4.21000000	    -18.68251361	     -3.74817784	     -1.19266909	     -1.65022284	     -0.00708514	     -0.27913463	     20.24818970	      8.08251645	     -8.02909075	    -15.27888848	      6.44121075	     -6.64337400	      3.49611598	     36.61852492	     -9.37328831	     -9.14360701	    -54.27404541	     -2.76279659	     -6.69396502	     23.46486006	     19.81445518	      3.79287493	    -11.29966308
      4.21500000	    -18.67945674	     -3.52004462	     -1.41494263	     -1.64428228	     -0.00653899	     -0.27882854	     19.57518382	      7.92605972	     -7.93972799	    -14.83207393	      6.50824850	     -6.21658936	      3.51440263	     37.09552653	     -9.29064207	     -9.61906241	    -53.30473315	     -2.43500607	     -6.53836664	     23.42158180	     19.75969816	      3.67277466	    -10.86693753
      4.22000000	    -18.65306034	     -3.29563094	     -1.64067420	     -1.63835183	     -0.00604095	     -0.27856788	     18.90246093	      7.76067078	     -7.88191625	    -14.42821484	      6.57585058	     -5.78581491	      3.54651419	     37.52006357	     -9.22074633	    -10.12239630	    -52.27221608	     -2.11663362	     -6.33680385	     23.37482108	     19.68031212	      3.56839990	    -10.40325713
      4.22500000	    -18.60156127	     -3.09510270	     -1.85891325	     -1.63245757	     -0.00560995	     -0.27832297	     18.20558928	      7.61082935	     -7.80857988	    -14.02085567	      6.64851081	     -5.33491291	      3.60559817	     37.90987765	     -9.16583144	    -10.59608825	    -51.20201133	     -1.82172265	     -6.12611803	     23.31076550	     19.56385711	      3.47613742	     -9.97097740
      4.23000000	    -18.64101718	     -2.91121582	     -2.03182985	     -1.62657747	     -0.00539706	     -0.27812113	     17.62330521	      7.46570657	     -7.73520693	    -13.64010620	      6.74734110	     -4.97796360	      3.65659934	     38.39830964	     -9.10242466	    -11.00253333	    -50.09577421	     -1.49986141	     -5.75646941	     23.31755283	     19.55407217	      3.38166841	     -9.60272321
      4.23500000	    -18.63437819	     -2.72924580	     -2.24843985	     -1.62070402	     -0.00519587	     -0.27790846	     17.01165274	      7.32332444	     -7.65179051	    -13.29640736	      6.84102008	     -4.57300662	      3.73083495	     38.79648533	     -9.07052691	    -11.46476991	    -48.92472376	     -1.19876322	     -5.37916466	     23.32314814	     19.48973385	      3.30712648	     -9.17170654
      4.24000000	    -18.59011377	     -2.55445650	     -2.47206098	     -1.61486443	     -0.00501433	     -0.27773304	     16.37250767	      7.17973219	     -7.56850327	    -12.96786110	      6.91339857	     -4.16714347	      3.83299592	     39.12929434	     -9.04097604	    -11.92179486	    -47.69576290	     -0.93145094	     -4.99590087	     23.32298405	     19.37588643	      3.24558590	     -8.74760360
      4.24500000	    -18.57412080	     -2.39536769	     -2.66167484	     -1.60901604	     -0.00497597	     -0.27760287	     15.76230196	      7.04207302	     -7.46736374	    -12.63782526	      7.01756123	     -3.81041570	      3.94315940	     39.48583638	     -9.00355064	    -12.33457837	    -46.43323328	     -0.67120610	     -4.54809184	     23.34189580	     19.29616106	      3.18360631	     -8.36856647
      4.25000000	    -18.63731177	     -2.26934216	     -2.77157687	     -1.60318142	     -0.00513399	     -0.27759959	     15.23184740	      6.91897919	     -7.34182360	    -12.29918100	      7.13683576	     -3.53932309	      4.00593828	     39.94058212	     -8.92638399	    -12.60961797	    -45.14232763	     -0.45006153	     -4.08175945	     23.36287509	     19.30627423	      3.12743923	     -8.11724548
      4.25500000	    -18.55003654	     -2.10754469	     -3.02529114	     -1.59734512	     -0.00517623	     -0.27739935	     14.56963746	      6.78450728	     -7.21751092	    -12.01004330	      7.25600848	     -3.16940851	      4.14332372	     40.15561486	     -8.94491306	    -13.14298677	    -43.78568782	     -0.21406146	     -3.56329788	     23.39999027	     19.14145688	      3.08019459	     -7.62731940
      4.26000000	    -18.56634667	     -1.97123432	     -3.16825507	     -1.59149162	     -0.00542471	     -0.27735873	     14.01763880	      6.65166286	     -7.11227408	    -11.72327575	      7.36730490	     -2.93105627	      4.22791833	     40.48983682	     -8.88592134	    -13.49619153	    -42.38445195	     -0.00672616	     -3.02023272	     23.43013961	     19.10008765	      3.01879659	     -7.33455785
      4.26500000	    -18.52745857	     -1.84691254	     -3.34526049	     -1.58563508	     -0.00570869	     -0.27728539	     13.39162555	      6.53419091	     -6.94286107	    -11.41149913	      7.51628236	     -2.64821550	      4.33117931	     40.74521996	     -8.86884369	    -13.91057141	    -40.96619164	      0.16059079	     -2.47191163	     23.46021839	     18.99361694	      2.97725413	     -6.95885298
      4.27000000	    -18.51339015	     -1.73059684	     -3.49564777	     -1.57977801	     -0.00609483	     -0.27725243	     12.80262294	      6.41813041	     -6.79240315	    -11.11889135	      7.65477343	     -2.42060058	      4.40587144	     41.01074727	     -8.83161203	    -14.28540003	    -39.50408880	      0.30682877	     -1.90743617	     23.48650741	     18.91731375	      2.93058137	     -6.64914758
      4.27500000	    -18.50191778	     -1.62298122	     -3.64083580	     -1.57391733	     -0.00656646	     -0.27724637	     12.21927510	      6.30706448	     -6.63525730	    -10.83386987	      7.80288986	     -2.20859996	      4.45815827	     41.26318473	     -8.79396816	    -14.65705971	    -38.01425048	      0.42623863	     -1.33050686	     23.51277287	     18.84103477	      2.89249598	     -6.35353452
      4.28000000	    -18.54021778	     -1.52882374	     -3.74624530	     -1.56807890	     -0.00717234	     -0.27733646	     11.70568501	      6.19838477	     -6.48974780	    -10.58109732	      7.95821674	     -2.03979583	      4.48237747	     41.56205538	     -8.72114279	    -14.93738888	    -36.49077297	      0.51180904	     -0.74843256	     23.53184953	     18.81400461	      2.85778769	     -6.14795622
      4.28500000	    -18.45839860	     -1.42884616	     -3.92664460	     -1.56217926	     -0.00772972	     -0.27730815	     11.04136396	      6.09315844	     -6.28472335	    -10.29419711	      8.14130958	     -1.80848662	      4.49575823	     41.69168919	     -8.70983216	    -15.37801221	    -34.95411101	      0.60491075	     -0.15481746	     23.57900734	     18.66182677	      2.83191170	     -5.78604660
      4.29000000	    -18.43999977	     -1.34048636	     -4.04627996	     -1.55627395	     -0.00843009	     -0.27736629	     10.45784770	      5.98874549	     -6.13481169	    -10.03331918	      8.32087210	     -1.64030957	      4.47797938	     41.88796505	     -8.65429019	    -15.73163000	    -33.39561333	      0.65100720	      0.44770454	     23.63257342	     18.58106968	      2.79590506	     -5.54121337
      4.29500000	    -18.50148749	     -1.27026733	     -4.11731221	     -1.55037309	     -0.00930155	     -0.27752749	      9.97626146	      5.89465569	     -6.03501720	     -9.80528699	      8.50548969	     -1.51574040	      4.46100818	     42.17406210	     -8.56915127	    -16.00635204	    -31.83224154	      0.65660648	      1.05013122	     23.66590325	     18.58458383	      2.77026410	     -5.39797694
      4.30000000	    -18.44245243	     -1.18164277	     -4.26773768	     -1.54439692	     -0.01009892	     -0.27754141	      9.34850813	      5.78849429	     -5.87879557	     -9.55290628	      8.71229928	     -1.30335476	      4.41612706	     42.28720866	     -8.53636596	    -16.45799409	    -30.26318673	      0.67919329	      1.68919490	     23.76029133	     18.46834074	      2.73243742	     -5.09704911
      4.30500000	    -18.42706906	     -1.10643979	     -4.36605106	     -1.53843663	     -0.01101657	     -0.27768371	      8.78608103	      5.68254400	     -5.75238862	     -9.33756496	      8.92296844	     -1.14252400	      4.35494063	     42.44625651	     -8.45186069	    -16.78545686	    -28.68158902	      0.66981846	      2.28704835	     23.85550246	     18.39440362	      2.70216836	     -4.89923432
      4.31000000	    -18.48220286	     -1.04862500	     -4.42688898	     -1.53249800	     -0.01210033	     -0.27791787	      8.32588716	      5.58901114	     -5.66092795	     -9.17430427	      9.15080194	     -1.03111085	      4.31534283	     42.68813431	     -8.34056296	    -17.01291076	    -27.11535556	      0.64499917	      2.86561991	     23.91136607	     18.39133188	      2.68269748	     -4.78614237
